Patient4_TMGait_0pt7_02_left_37_EMG.mot
version=1
nRows=16
nColumns=33
inDegrees=no
endheader
time	1LAddLong	2LGlutMax	3LGlutMed	4LIliopsoas	5LSemiMemb	6LBicFemLong	7LRecFem	8LVastMed	9LVastLat	10LGasMed	11LTibAnt	12lTibPost	13LPeroneusLong	14LSol	15LExtDigLong	16LFlexDigLong	17RAddLong	18RGlutMax	19RGlutMed	20RIliopsoas	21RSemiMemb	22RBicFemLong	23RRecFem	24RVastMed	25RVastLat	26RGasMed	27RTibAnt	28RTibPost	29RPeroneusLong	30RSol	31RExtDigLong	32RFlexDigLong
42.32	0.024261	1.5044	-0.074615	0.005798	0.004272	0.036621	0.050354	0.023651	-0.24628	0.010071	0.13962	0.008698	-0.027313	0.21484	0.37033	-0.008545	-0.023041	0.22354	0.13809	-0.11597	-0.081787	-0.2121	-0.09903	0.075378	0.086365	0.005646	0.33905	-0.017395	-1.2274	0.035553	-0.002899	0.010986
42.321	0.016937	1.5323	-0.050812	-0.023193	0.011902	0.028687	0.017548	0.035553	-0.25803	0.030212	-0.024567	-0.011597	-0.003662	0.16708	-0.43167	-0.014496	-0.003052	0.2002	0.5397	-0.10117	-0.13336	-0.32379	-0.19562	0.24002	0.44449	-0.15579	0.336	-0.015564	-2.3074	0.18082	-0.00412	0.002747
42.322	0.024109	1.4873	-0.054474	-0.035706	0.016327	0.026398	-0.003967	0.024567	-0.27649	0.07431	-0.005798	0.007477	-0.050964	0.084076	-0.33768	-0.016937	0.003967	0.091248	0.51514	-0.12299	-0.13886	-0.31815	-0.21652	0.29358	0.35568	-0.19089	-0.1294	-0.022583	1.0985	0.26627	-0.003052	0.012207
42.323	0.017242	1.5204	-0.060272	0.006409	0.016327	0.055695	-0.035095	0.032806	-0.31342	0.079041	0.066833	-0.018005	-0.08316	0.010071	0.98785	0.00351	0.036469	0.082092	0.48141	-0.11902	-0.086823	-0.31021	-0.22247	0.19974	0.19867	-0.006104	-0.33691	-0.024261	1.1809	0.014038	-0.007324	0.005035
42.324	0.022736	1.5125	-0.059967	0.029144	0.005646	0.063934	-0.12695	0.030518	-0.33447	0.058136	0.053864	0.002136	-0.023956	-0.01236	-0.71091	0.013275	0.066986	0.057983	0.043488	-0.033569	-0.046692	-0.028229	-0.26398	0.011139	0.10788	0.11444	-0.04776	-0.001373	-2.6251	-0.088959	-0.003815	0.006866
42.325	0.014496	1.5639	-0.044403	0.092773	0.003204	0.068054	-0.19333	0.02533	-0.34698	0.041199	0.061493	0.005493	0.019989	-0.033112	-0.74905	0.006409	0.074158	-0.042725	-0.24216	0.00412	-0.003052	0.18265	-0.11154	-0.1059	-0.054321	0.075226	0.13412	0.000458	-1.7137	-0.2121	-0.001678	0.004425
42.326	0.014954	1.5692	-0.057678	0.15289	0.006866	0.049133	-0.13382	0.034485	-0.3627	0.073547	0.1152	0.016022	-0.013275	-0.10559	-0.34607	0.016174	0.074768	-0.005951	-0.27466	0.005188	-0.16342	0.11261	0.09552	-0.086975	-0.61615	0.075684	-0.30777	-0.002289	2.1455	-0.25909	-0.005341	0.001373
42.327	0.013275	1.5082	-0.043945	0.10193	0.005035	0.027771	-0.080261	0.036926	-0.37872	0.052338	0.10742	-0.033569	0.035706	-0.045471	-0.11856	0.015259	0.034027	0.082397	0.39734	-0.057831	-0.42664	0.11917	0.13504	-0.20523	-0.80185	0.030823	-0.29953	-0.002594	1.4156	-0.051117	0.000305	-0.006409
42.328	0.018463	1.405	-0.052795	0.011139	0.004578	0.020752	-0.071564	0.028687	-0.38635	0.023041	-0.25116	0.012054	0.06012	-0.00412	0.055389	0.026093	0.005646	0.11551	0.952	0.019989	-0.19669	-0.011597	0.10651	-0.31891	-0.75241	0.009003	-0.039368	-0.005035	0.616	0.19577	-0.001678	-0.010376
42.329	0.023041	1.2204	-0.079956	-0.031891	0.007935	0.007324	-0.065765	0.028839	-0.41641	0.039215	-0.089874	0.019531	-0.003052	0.003204	0.15411	0.021362	0.030365	-0.024414	0.70313	0.040283	-0.000153	-0.23453	0.036621	-0.17563	-0.33127	0.090637	-0.065613	-0.007172	0.11688	0.27741	-0.000305	-0.006866
42.33	0.02243	1.0939	-0.071716	-0.039368	0.00946	-0.019989	-0.077362	0.020752	-0.42511	0.058441	0.12772	-0.012665	-0.072784	-0.010376	0.057678	0.012512	0.035706	-0.005646	-0.11948	0.06958	-0.086365	-0.17838	0.004578	0.05722	-0.1149	0.06546	-0.069122	-0.011139	-0.14496	0.17563	-0.001678	-0.003052
42.331	0.03006	0.94315	0.01297	-0.037689	0.012817	-0.043182	-0.14191	0.015106	-0.47119	0.058899	0.10269	-0.006561	-0.067902	-0.086823	-0.13214	0	-0.000305	0.014191	-0.85312	0.093231	-0.16586	-0.20172	0.067139	0.018005	-0.072632	-0.017853	-0.084381	-0.014038	0.25604	0.032654	-0.001373	-0.004883
42.332	0.012054	0.83206	0.05249	-0.016327	0.006256	-0.033569	-0.13718	0.022583	-0.48798	0.045166	0.079346	-0.020447	-0.078735	-0.068665	-0.15793	0.008698	0.023041	-0.010376	-0.57281	0.074768	-0.1564	-0.30228	0.075836	-0.089874	-0.095215	-0.022278	-0.001068	-0.012665	-0.82779	-0.067444	-0.003662	-0.001221
42.333	-0.005188	0.73608	-0.017242	0.017853	0.006561	-0.00351	-0.13901	0.020752	-0.52689	0.014343	0.016174	0.012054	-0.023804	0.01358	-0.14908	0.020599	0.01709	-0.10834	-0.63065	0.034943	-0.6337	-0.29755	0.090942	-0.14679	-0.06546	0.037537	-0.001678	-0.009003	-0.88119	0.055542	-0.002899	0.002747
42.334	-0.014343	0.6955	-0.056305	-0.003357	0.006866	-0.008545	-0.16052	0.016022	-0.56717	0.020599	-0.056458	0.00885	0.055542	-0.021362	-0.16144	0.017548	0.021515	-0.11383	-0.010681	-0.037079	-0.67795	-0.25726	0.090942	-0.21164	-0.056	0.032501	-0.12299	0.000458	0.25192	-0.11353	-0.000916	0.001526
42.335	-0.011444	0.62851	-0.063171	-0.022888	0.009766	-0.033264	-0.19287	0.00412	-0.62241	0.052185	-0.10147	0.016632	0.037384	-0.12299	0.33279	0.016327	-0.030823	-0.16892	-0.31326	-0.043182	-0.41031	-0.032654	-0.000916	-0.045929	-0.010834	0.027771	-0.050507	0.007324	0.14267	-0.12131	-0.002136	0.006561
